PathFileType	4	(X/Y/Z)	OpenSim_Sub01_CSBaseline_Gyro.trc
DataRate	CameraRate	NumFrames	NumMarkers	Units	OrigDataRate	OrigDataStartFrame	OrigNumFrames
100	100	20	8	m	100	3719	5950
Frame#	Time	torso_imu_offset_imu	pelvis_imu_offset_imu	tibia_r_imu_offset_imu	femur_r_imu_offset_imu	tibia_l_imu_offset_imu	femur_l_imu_offset_imu	toes_r_imu_offset_imu	toes_l_imu_offset_imu
				X1	Y1	Z1	X2	Y2	Z2	X3	Y3	Z3	X4	Y4	Z4	X5	Y5	Z5	X6	Y6	Z6	X7	Y7	Z7	X8		Y8	Z8	

3719	37.18000000	0.06630309	-0.10040165	0.01796861	-0.20475649	-0.07074561	-0.09735706	-0.14830288	-0.14609823	-0.67742560	0.27871218	-0.07933387	-0.73278554	-0.58839473	-0.69646440	-4.55694883	0.56152363	-0.45009438	0.55907525	-0.10938958	-0.18757725	-0.11278138	0.49377936	3.56814038	-1.54204415
3720	37.19000000	0.04331619	-0.09728088	0.00363923	-0.21974596	-0.10325956	-0.09470078	-0.19842275	-0.13286336	-0.70382569	0.26571309	-0.08389829	-0.71285751	-0.70300278	-0.66134604	-4.40183665	0.52957384	-0.47640253	0.68138465	-0.13003496	-0.21498528	-0.12221578	0.26863755	3.61205903	-1.71414293
3721	37.20000000	0.02498382	-0.08751530	-0.01074137	-0.22983302	-0.12737547	-0.09362313	-0.24711938	-0.12078929	-0.73976043	0.23725815	-0.09543866	-0.69058027	-0.83927167	-0.63712203	-4.19181044	0.45702564	-0.45218094	0.77854378	-0.15267367	-0.24872774	-0.13021583	0.12073404	3.60968200	-1.89263510
3722	37.21000000	0.01167102	-0.06982764	-0.02495719	-0.23465956	-0.14023762	-0.09060180	-0.27457349	-0.11518295	-0.78468521	0.20657507	-0.11703063	-0.66796008	-0.96589230	-0.63018715	-3.92806678	0.34957771	-0.37443696	0.82427246	-0.17365745	-0.28711299	-0.13737342	0.09349410	3.48420279	-2.07785059
3723	37.22000000	0.00128360	-0.04680690	-0.04020976	-0.23695345	-0.14699291	-0.08428251	-0.29390062	-0.11430855	-0.82920418	0.17202669	-0.14359402	-0.64763248	-1.04340039	-0.60456634	-3.63238806	0.23360190	-0.28465703	0.80461176	-0.19219576	-0.33428765	-0.14591483	0.06196293	3.22959716	-2.21162351
3724	37.23000000	-0.00836376	-0.02146916	-0.05773405	-0.23972298	-0.15349700	-0.07384776	-0.32054810	-0.11548992	-0.86443061	0.13080847	-0.16889042	-0.63164683	-1.03708754	-0.52513630	-3.32501212	0.13666340	-0.22626463	0.71146635	-0.20795132	-0.39538868	-0.15766971	-0.10032054	2.85126789	-2.23354110
3725	37.24000000	-0.01696241	0.00416160	-0.07713030	-0.24456030	-0.16174399	-0.06099372	-0.34803013	-0.11618033	-0.89909821	0.08882818	-0.18611674	-0.61512178	-0.97273471	-0.42475125	-2.98147581	0.06976945	-0.20054992	0.58006330	-0.22127463	-0.47762179	-0.16808944	-0.30016544	2.37371370	-2.14170528
3726	37.25000000	-0.02273906	0.02865198	-0.09703556	-0.25221564	-0.17144511	-0.04889087	-0.35697012	-0.11391436	-0.95228866	0.05711541	-0.18815134	-0.58910560	-0.91159195	-0.37614244	-2.55104468	0.03414675	-0.18399938	0.47103639	-0.23292666	-0.58938357	-0.16888144	-0.31543530	1.83272880	-1.96872841
3727	37.26000000	-0.02532679	0.05170385	-0.11632855	-0.26205145	-0.18128046	-0.03891231	-0.33810557	-0.10728532	-1.03323972	0.04296535	-0.17096158	-0.54848917	-0.86948734	-0.40464522	-2.00381382	0.02829911	-0.16395356	0.41329993	-0.24467665	-0.73281626	-0.15569074	-0.05742868	1.27060052	-1.74554233
3728	37.27000000	-0.02753877	0.07553515	-0.13445496	-0.27035800	-0.18769524	-0.02837819	-0.30511305	-0.09724638	-1.12892623	0.04519284	-0.13741637	-0.49685458	-0.75987751	-0.42869182	-1.35711216	0.04493696	-0.15268676	0.36426086	-0.26053168	-0.89607262	-0.13305635	0.26110801	0.74377831	-1.49833392
3729	37.28000000	-0.03255304	0.10253759	-0.15084852	-0.27418695	-0.18722714	-0.01430781	-0.27423240	-0.08537027	-1.22441239	0.06119009	-0.09151232	-0.43899768	-0.50001981	-0.36101546	-0.63681373	0.07610640	-0.16529332	0.27498978	-0.28396975	-1.06619255	-0.10706265	0.40405725	0.29690754	-1.24508337
3730	37.29000000	-0.04287185	0.13338259	-0.16402754	-0.28274204	-0.18049097	0.00372395	-0.25612339	-0.07632950	-1.31613548	0.08550771	-0.03924769	-0.38010411	-0.18940684	-0.20484249	0.10897007	0.11508785	-0.21115223	0.13102824	-0.30988088	-1.23826845	-0.08732463	0.31510576	-0.16700961	-0.92567615
3731	37.30000000	-0.06059164	0.16772623	-0.17197759	-0.31233684	-0.17049648	0.02463034	-0.25813614	-0.07660447	-1.40722971	0.11101226	0.01220680	-0.32557468	-0.03439591	-0.01681475	0.81891096	0.15588498	-0.29622053	-0.06165311	-0.32811310	-1.41214100	-0.08551236	0.04414090	-0.82779865	-0.43444820
3732	37.31000000	-0.08629543	0.20513088	-0.17423146	-0.36682246	-0.15810142	0.04641774	-0.28382116	-0.08828989	-1.49825546	0.12892102	0.05744462	-0.27767512	-0.10615945	0.13950498	1.41072649	0.19146069	-0.41577180	-0.27709268	-0.33362631	-1.58722642	-0.10742279	-0.33090894	-1.71071762	0.22415687
3733	37.32000000	-0.11720100	0.24497903	-0.17378955	-0.42203781	-0.13929274	0.06511265	-0.32834648	-0.10364264	-1.58383695	0.12681973	0.09502936	-0.23166982	-0.17115413	0.18665185	1.75576101	0.21243481	-0.54134068	-0.44531279	-0.33293177	-1.76185686	-0.14568924	-0.67261104	-2.49375446	0.79870216
3734	37.33000000	-0.15012495	0.28639668	-0.17397518	-0.45270080	-0.11076931	0.07669421	-0.38578624	-0.11422212	-1.65857601	0.09349523	0.12478921	-0.18160746	0.01132514	0.05988000	1.74142664	0.21073225	-0.64263007	-0.49525413	-0.33308698	-1.93452470	-0.19234094	-0.84975099	-2.84614625	1.03417235
3735	37.34000000	-0.18244297	0.32611334	-0.17660175	-0.46108509	-0.08338333	0.07941833	-0.45063044	-0.11812907	-1.72513550	0.03520632	0.15406173	-0.11876650	0.33027627	-0.15483165	1.48578916	0.19502401	-0.70359276	-0.40617465	-0.33065265	-2.10689066	-0.25155844	-0.87842838	-2.83187464	0.98362360
3736	37.35000000	-0.21186472	0.35945011	-0.18258854	-0.46565705	-0.07626630	0.07287988	-0.51765619	-0.11731167	-1.79093076	-0.03150228	0.19460633	-0.03281183	0.46780092	-0.28295290	1.24260017	0.18377886	-0.71655974	-0.18719714	-0.31606299	-2.28254628	-0.33462423	-0.86145955	-2.74703017	0.88139229
3737	37.36000000	-0.23698900	0.38284806	-0.19214658	-0.47158212	-0.09373579	0.05580296	-0.59049671	-0.11130381	-1.86279376	-0.09453523	0.25648737	0.08220941	0.22886330	-0.22688409	1.18521833	0.17830950	-0.66794519	0.11394536	-0.29366352	-2.47817732	-0.43877934	-0.86237529	-2.72763530	0.86550030
3738	37.37000000	-0.25838876	0.39528790	-0.20393223	-0.45388077	-0.10681672	0.02493013	-0.69253721	-0.09414159	-1.94611774	-0.15202157	0.34585954	0.22242564	-0.30146658	-0.06323184	1.30371116	0.14136625	-0.53071965	0.36423125	-0.29901642	-2.73963066	-0.52972969	-0.85454900	-2.54586390	0.85383811
